 <svg width="8" height="15" viewBox="0 0 8 15" fill="none" xmlns="http://www.w3.org/2000/svg">
<path d="M7.12979 1.91389L7.1299 1.914L7.1344 1.90875C7.31476 1.69833 7.31528 1.36878 7.1047 1.15819C7.01062 1.06412 6.86296 1.00488 6.73613 1.00488C6.57736 1.00488 6.4537 1.07206 6.34569 1.18007L6.34564 1.18001L6.34229 1.18358L0.830207 7.06752C0.830152 7.06757 0.830098 7.06763 0.830043 7.06769C0.402311 7.52078 0.406126 8.26524 0.827473 8.73615L0.827439 8.73618L0.829982 8.73889L6.34248 14.6014L6.34243 14.6014L6.34569 14.6047C6.546 14.805 6.88221 14.8491 7.1047 14.6266C7.30447 14.4268 7.34883 14.0918 7.12833 13.8693L1.62078 8.01209C1.55579 7.93114 1.56859 7.82519 1.61408 7.7797L1.61413 7.77975L1.61729 7.77639L7.12979 1.91389Z" fill="#727A83" stroke="#727A83" stroke-width="0.3"/>
</svg>
