<svg width="22" height="20" viewBox="0 0 22 20" fill="none" xmlns="http://www.w3.org/2000/svg">
<g opacity="0.8">
<path d="M15 19.0078V3.00781C15 2.47738 14.7893 1.96867 14.4142 1.5936C14.0391 1.21853 13.5304 1.00781 13 1.00781H9C8.46957 1.00781 7.96086 1.21853 7.58579 1.5936C7.21071 1.96867 7 2.47738 7 3.00781V19.0078" stroke="#5E666F" stroke-width="1.6" stroke-linecap="round" stroke-linejoin="round"/>
<path d="M19 5.00781H3C1.89543 5.00781 1 5.90324 1 7.00781V17.0078C1 18.1124 1.89543 19.0078 3 19.0078H19C20.1046 19.0078 21 18.1124 21 17.0078V7.00781C21 5.90324 20.1046 5.00781 19 5.00781Z" stroke="#5E666F" stroke-width="1.6" stroke-linecap="round" stroke-linejoin="round"/>
</g>
</svg>
