<svg width="20" height="21" viewBox="0 0 20 21" fill="none" xmlns="http://www.w3.org/2000/svg">
<g opacity="0.8" clip-path="url(#clip0_1_1270)">
<path fill-rule="evenodd" clip-rule="evenodd" d="M4.16663 10.0078C3.70639 10.0078 3.33329 10.3809 3.33329 10.8411V16.6745C3.33329 17.1347 3.70639 17.5078 4.16663 17.5078H15.8333C16.2935 17.5078 16.6666 17.1347 16.6666 16.6745V10.8411C16.6666 10.3809 16.2935 10.0078 15.8333 10.0078H4.16663ZM1.66663 10.8411C1.66663 9.46043 2.78591 8.34114 4.16663 8.34114H15.8333C17.214 8.34114 18.3333 9.46043 18.3333 10.8411V16.6745C18.3333 18.0552 17.214 19.1745 15.8333 19.1745H4.16663C2.78591 19.1745 1.66663 18.0552 1.66663 16.6745V10.8411Z" fill="#5E666F"/>
<path fill-rule="evenodd" clip-rule="evenodd" d="M10 2.50781C9.11594 2.50781 8.2681 2.859 7.64298 3.48412C7.01786 4.10925 6.66667 4.95709 6.66667 5.84115V9.17448C6.66667 9.63472 6.29357 10.0078 5.83333 10.0078C5.3731 10.0078 5 9.63472 5 9.17448V5.84115C5 4.51506 5.52678 3.24329 6.46447 2.30561C7.40215 1.36793 8.67392 0.841146 10 0.841146C11.3261 0.841146 12.5979 1.36793 13.5355 2.30561C14.4732 3.24329 15 4.51506 15 5.84115V9.17448C15 9.63472 14.6269 10.0078 14.1667 10.0078C13.7064 10.0078 13.3333 9.63472 13.3333 9.17448V5.84115C13.3333 4.95709 12.9821 4.10925 12.357 3.48412C11.7319 2.859 10.8841 2.50781 10 2.50781Z" fill="#5E666F"/>
</g>
<defs>
<clipPath id="clip0_1_1270">
<rect width="20" height="20" fill="white" transform="translate(0 0.0078125)"/>
</clipPath>
</defs>
</svg>
