<svg width="125" height="41" viewBox="0 0 125 41" fill="none" xmlns="http://www.w3.org/2000/svg">
<g clip-path="url(#clip0_89_34)">
<path d="M78.8106 35.7508C78.8187 36.3111 78.7187 36.8671 78.517 37.3831C78.3153 37.8991 78.0164 38.3638 77.6393 38.7474C76.8932 39.5404 75.8897 39.9847 74.8444 39.9847C73.7992 39.9847 72.7956 39.5404 72.0495 38.7474C71.6733 38.3631 71.3748 37.8983 71.1732 37.3824C70.9716 36.8666 70.8712 36.311 70.8783 35.7508C70.8763 34.9014 71.1075 34.0705 71.5426 33.3638C71.9777 32.6571 72.597 32.1065 73.3218 31.782C74.0465 31.4575 74.844 31.3737 75.6128 31.5414C76.3816 31.7091 77.087 32.1206 77.6393 32.7236C78.015 33.1148 78.3128 33.5853 78.5142 34.1059C78.7157 34.6266 78.8165 35.1864 78.8106 35.7508Z" fill="#00A3ED"/>
<path d="M92.0532 40.0117C88.7495 40.0117 86.1619 38.8233 84.2906 36.4464C82.4192 34.0695 81.4849 30.8834 81.4876 26.8879C81.477 25.2269 81.7325 23.5765 82.2429 22.0102C82.7406 20.5052 83.4819 19.1083 84.4319 17.8849C85.3724 16.6727 86.5416 15.6927 87.8609 15.0108C89.2606 14.2781 90.7976 13.9053 92.3521 13.9215C94.5923 13.9215 96.4152 14.5048 97.8207 15.6714C98.5006 16.2206 99.0475 16.9401 99.4147 17.7682C99.7818 18.5963 99.9583 19.5085 99.929 20.4266C99.9431 21.2098 99.7497 21.981 99.3716 22.6489C99.1755 22.9737 98.9019 23.2351 98.5798 23.4053C98.2577 23.5755 97.8991 23.6482 97.542 23.6157C96.7725 23.6667 96.0141 23.3975 95.4216 22.8632C95.1926 22.657 95.007 22.3999 94.8774 22.1094C94.7478 21.8188 94.6772 21.5016 94.6704 21.179C94.6742 20.3966 94.7678 19.6178 94.9491 18.8605C95.0938 18.2859 95.2018 17.7013 95.2722 17.1106C95.0022 16.5997 94.5564 16.2253 94.0323 16.0695C93.456 15.89 92.8588 15.8016 92.2592 15.807C91.5269 15.8044 90.8035 15.9808 90.1429 16.3232C89.3562 16.7707 88.6834 17.4213 88.184 18.2174C87.5335 19.2444 87.0626 20.3921 86.7947 21.6033C86.4129 23.2683 86.2336 24.9801 86.2615 26.6954C86.2615 29.8101 86.8983 32.3488 88.1719 34.3116C89.4455 36.2743 91.1176 37.2572 93.1882 37.2601C94.5271 37.311 95.8459 36.8972 96.9524 36.0789C98.1081 35.1226 99.0703 33.9195 99.7796 32.5442L101.262 33.5985C100.299 35.5027 98.9099 37.115 97.223 38.2881C95.6912 39.395 93.8946 39.994 92.0532 40.0117Z" fill="#494949"/>
<path d="M124.393 26.7392C124.397 28.4864 124.143 30.2231 123.642 31.8837C123.189 33.4537 122.448 34.9087 121.465 36.1621C120.457 37.4526 119.189 38.4736 117.757 39.1455C116.26 39.8176 114.652 40.151 113.032 40.1255C111.609 40.1369 110.198 39.8394 108.884 39.2505C107.566 38.6545 106.375 37.7716 105.386 36.6564C104.347 35.4716 103.534 34.0775 102.991 32.553C102.365 30.8064 102.058 28.9449 102.086 27.0716C102.086 23.2103 103.124 20.0489 105.2 17.5875C107.276 15.126 109.998 13.8967 113.367 13.8997C116.566 13.8997 119.203 15.0662 121.279 17.3994C123.355 19.7325 124.393 22.8457 124.393 26.7392ZM119.599 26.7873C119.591 25.4533 119.475 24.1226 119.251 22.8107C119.068 21.5787 118.717 20.383 118.209 19.2629C117.753 18.2745 117.086 17.4182 116.263 16.765C115.401 16.1177 114.37 15.788 113.322 15.8245C112.239 15.7891 111.172 16.1226 110.273 16.7782C109.401 17.4563 108.697 18.3581 108.225 19.4029C107.706 20.5008 107.354 21.6827 107.183 22.9026C106.986 24.1556 106.884 25.4242 106.88 26.6954C106.872 28.1887 106.992 29.6797 107.24 31.1488C107.45 32.4206 107.837 33.6507 108.387 34.7972C108.854 35.7956 109.532 36.6604 110.366 37.3213C111.238 37.9549 112.273 38.2748 113.322 38.2356C115.253 38.2356 116.781 37.2236 117.906 35.1996C119.032 33.1757 119.597 30.3715 119.603 26.7873H119.599Z" fill="#494949"/>
<path d="M22.1402 38.8813C21.4039 39.1693 20.7617 39.3997 20.2054 39.5769C19.5906 39.7642 18.9543 39.8552 18.3157 39.8472C17.2728 39.9056 16.2427 39.5775 15.3951 38.9168C14.6313 38.232 14.1333 37.2608 14.0003 36.1965H13.8613C12.9394 37.3394 11.8299 38.2873 10.589 38.9921C9.27628 39.6702 7.83377 40.0012 6.37998 39.9579C5.59626 39.9895 4.8145 39.8532 4.07957 39.5566C3.34464 39.2601 2.67101 38.8093 2.09736 38.2301C1.53923 37.6467 1.10129 36.9422 0.812269 36.1626C0.523244 35.383 0.38967 34.546 0.420311 33.7066C0.408341 32.8258 0.535616 31.9492 0.796625 31.1148C1.28237 29.6663 2.23149 28.4543 3.47173 27.699C4.04879 27.3369 4.65045 27.0229 5.27149 26.7597C5.97503 26.4644 7.40257 25.9297 9.55411 25.1559C11.0436 24.6692 12.4982 24.065 13.9063 23.3483V20.8141C13.8859 20.3878 13.8422 19.9632 13.7754 19.5426C13.6895 18.9217 13.504 18.322 13.2273 17.7704C12.8978 17.1284 12.4461 16.5696 11.902 16.1311C11.1826 15.6214 10.3303 15.3774 9.4723 15.4356C8.7871 15.4273 8.10677 15.5611 7.46802 15.8299C6.98416 16.0015 6.53943 16.2824 6.16319 16.6539C6.18638 17.1606 6.26184 17.6629 6.38816 18.1514C6.52802 18.7498 6.60216 19.364 6.60904 19.9812C6.60082 20.2935 6.53084 20.6002 6.40382 20.8807C6.27681 21.1612 6.09572 21.4089 5.87278 21.6071C5.30314 22.1273 4.57149 22.392 3.82759 22.347C3.49348 22.3755 3.15831 22.3087 2.85546 22.1532C2.55261 21.9978 2.29264 21.7591 2.10145 21.4609C1.70558 20.8224 1.51224 20.0616 1.55061 19.2936C1.58898 18.5256 1.85698 17.7919 2.31415 17.2033C2.86769 16.4494 3.53748 15.8048 4.29389 15.2982C5.09521 14.7772 5.95605 14.3721 6.85446 14.0931C7.79712 13.7624 8.78013 13.5862 9.7709 13.5704C10.9233 13.5559 12.0746 13.6538 13.2109 13.8628C14.1771 14.0509 15.0891 14.4819 15.8737 15.121C16.6887 15.7696 17.3182 16.6542 17.6898 17.6729C18.1455 19.0009 18.3567 20.4127 18.3116 21.8287C18.3116 24.2536 18.2884 26.4008 18.242 28.2705C18.1957 30.1401 18.1739 32.1914 18.1766 34.4243C18.1532 34.9708 18.2617 35.5144 18.4916 36.0016C18.7301 36.418 19.0659 36.7588 19.4651 36.9895C19.8125 37.1722 20.1958 37.2604 20.5817 37.2465C21.0889 37.2465 21.6084 37.2465 22.1402 37.2465V38.8813ZM13.9594 25.4616C12.6301 25.9046 11.4643 26.299 10.4663 26.7065C9.48426 27.0999 8.54475 27.608 7.66436 28.2218C6.92096 28.7557 6.28963 29.4531 5.81142 30.2686C5.34027 31.1211 5.10463 32.1021 5.13242 33.0952C5.13242 34.5011 5.47192 35.5349 6.15092 36.1965C6.86856 36.8698 7.79544 37.2229 8.74422 37.1845C9.78066 37.2051 10.8 36.8971 11.677 36.2984C12.4924 35.7455 13.2145 35.0458 13.8122 34.2294L13.9594 25.4616Z" fill="#494949"/>
<path d="M48.8633 38.8814L40.793 39.4396L40.4412 39.0807V36.7459L40.2571 36.6927C39.4078 37.7055 38.3819 38.5261 37.2384 39.1073C36.0938 39.7213 34.8344 40.0426 33.5571 40.0466C32.2361 40.0462 30.9325 39.7205 29.7449 39.094C28.5139 38.4565 27.4222 37.5429 26.5421 36.4136C25.576 35.1699 24.8288 33.7449 24.3374 32.2091C23.7788 30.4614 23.502 28.6225 23.5193 26.773C23.5116 25.0093 23.8056 23.2593 24.3865 21.6116C24.9354 20.0423 25.7466 18.596 26.7793 17.3451C27.7635 16.1859 28.9583 15.2597 30.2889 14.6248C31.6182 13.9566 33.0651 13.6075 34.5306 13.6014C35.6032 13.5996 36.6716 13.7486 37.7088 14.0444C38.6448 14.2975 39.5477 14.6771 40.3962 15.1742V6.45512C40.4036 5.79004 40.2925 5.12965 40.069 4.51017C39.885 3.98264 39.5674 3.52198 39.1527 3.18104C38.6131 2.81815 38.0102 2.57984 37.3816 2.48103C36.5854 2.3317 35.7826 2.22671 34.9765 2.16648V0.584816L44.4293 0L44.7811 0.381016V34.1763C44.767 34.7025 44.8768 35.2239 45.1001 35.6915C45.3244 36.1192 45.6418 36.4812 46.0245 36.7459C46.4224 36.9794 46.8649 37.1098 47.3171 37.1269C47.8816 37.1757 48.397 37.2111 48.8633 37.2288V38.8814ZM40.3962 34.482V19.804C40.0684 18.727 39.4959 17.7565 38.7314 16.9818C38.2531 16.5433 37.7149 16.1876 37.1362 15.9274C36.4573 15.6354 35.7313 15.4938 35.001 15.5109C34.0857 15.5035 33.187 15.7752 32.4077 16.2951C31.5663 16.8778 30.8506 17.6499 30.3093 18.559C29.6644 19.6721 29.1996 20.8962 28.935 22.1787C28.5855 23.7751 28.4165 25.4116 28.4319 27.0521C28.4183 28.3558 28.5446 29.6567 28.8082 30.9288C29.053 32.0795 29.4807 33.1753 30.0721 34.1674C30.5993 35.0973 31.3191 35.8815 32.1745 36.4579C33.0877 37.0602 34.1407 37.3676 35.2096 37.344C36.3043 37.3921 37.3872 37.0834 38.3183 36.4579C39.0916 35.9061 39.7909 35.2411 40.3962 34.482Z" fill="#494949"/>
<path d="M73.0529 15.8167C72.3433 15.956 71.6637 16.237 71.0488 16.6451C70.3126 17.1915 69.7431 17.9626 69.4126 18.8604C68.4936 21.1287 67.5391 23.4916 66.5493 25.949C65.5594 28.4064 64.5342 30.9938 63.4734 33.7111C63.1625 34.4909 62.8298 35.4139 62.4753 36.4801C62.1236 37.5479 61.8004 38.5757 61.5018 39.5548H59.6734C58.1927 35.5822 56.8292 31.9522 55.583 28.6649C54.3368 25.3775 53.0388 22.0192 51.6889 18.5901C51.3838 17.8188 50.8517 17.1786 50.1755 16.7692C49.5284 16.3579 48.8172 16.0786 48.0771 15.9451V14.2793H58.7735V16.0515C58.1785 16.0914 57.5891 16.1983 57.0146 16.3705C56.3111 16.5654 55.9594 16.8312 55.9594 17.1679C55.9832 17.3043 56.0229 17.4368 56.0779 17.5622C56.1556 17.7749 56.2333 18.0053 56.3111 18.2888C56.9546 20.0167 57.8614 22.4298 59.0312 25.5281C60.2011 28.6265 61.1555 31.1252 61.8945 33.0244C62.459 31.5712 63.1665 29.7548 64.0173 27.5883C64.8681 25.4218 65.7884 22.9984 66.7742 20.3224C66.9297 19.8793 67.081 19.4363 67.2201 19.0376C67.3602 18.6524 67.4323 18.2421 67.4328 17.8281C67.4273 17.6758 67.3894 17.527 67.322 17.3933C67.2546 17.2595 67.1595 17.1445 67.0443 17.0572C66.7632 16.8124 66.452 16.6112 66.1199 16.4591C65.7785 16.2964 65.4237 16.1688 65.0604 16.078C64.7168 15.9939 64.4387 15.9318 64.2178 15.9008V14.2793H73.0611L73.0529 15.8167Z" fill="#494949"/>
</g>
<defs>
<clipPath id="clip0_89_34">
<rect width="125" height="41" fill="white"/>
</clipPath>
</defs>
</svg>
