<svg width="22" height="21" viewBox="0 0 22 21" fill="none" xmlns="http://www.w3.org/2000/svg">
<g opacity="0.8" clip-path="url(#clip0_1_1253)">
<path fill-rule="evenodd" clip-rule="evenodd" d="M3.54439 4.17448C3.06205 4.17448 2.66375 4.55138 2.66375 5.00781V15.0078C2.66375 15.4642 3.06205 15.8411 3.54439 15.8411H17.6346C18.117 15.8411 18.5153 15.4642 18.5153 15.0078V5.00781C18.5153 4.55138 18.117 4.17448 17.6346 4.17448H3.54439ZM0.902466 5.00781C0.902466 3.63091 2.08932 2.50781 3.54439 2.50781H17.6346C19.0897 2.50781 20.2766 3.63091 20.2766 5.00781V15.0078C20.2766 16.3847 19.0897 17.5078 17.6346 17.5078H3.54439C2.08932 17.5078 0.902466 16.3847 0.902466 15.0078V5.00781Z" fill="#5E666F"/>
<path fill-rule="evenodd" clip-rule="evenodd" d="M1.06173 4.52993C1.34064 4.15289 1.88975 4.06119 2.2882 4.32512L10.5896 9.82393L18.891 4.32512C19.2894 4.06119 19.8385 4.15289 20.1174 4.52993C20.3964 4.90697 20.2994 5.42658 19.901 5.69051L11.0946 11.5238C10.7914 11.7247 10.3878 11.7247 10.0846 11.5238L1.27817 5.69051C0.879723 5.42658 0.782822 4.90697 1.06173 4.52993Z" fill="#5E666F"/>
</g>
<defs>
<clipPath id="clip0_1_1253">
<rect width="21.1354" height="20" fill="white" transform="translate(0.0218506 0.0078125)"/>
</clipPath>
</defs>
</svg>
