<svg width="24" height="25" viewBox="0 0 24 25" fill="none" xmlns="http://www.w3.org/2000/svg">
<g opacity="0.8">
<path fill-rule="evenodd" clip-rule="evenodd" d="M4.46447 15.4723C5.40215 14.5346 6.67392 14.0078 8 14.0078H16C17.3261 14.0078 18.5979 14.5346 19.5355 15.4723C20.4732 16.41 21 17.6817 21 19.0078V21.0078C21 21.5601 20.5523 22.0078 20 22.0078C19.4477 22.0078 19 21.5601 19 21.0078V19.0078C19 18.2122 18.6839 17.4491 18.1213 16.8865C17.5587 16.3239 16.7956 16.0078 16 16.0078H8C7.20435 16.0078 6.44129 16.3239 5.87868 16.8865C5.31607 17.4491 5 18.2122 5 19.0078V21.0078C5 21.5601 4.55228 22.0078 4 22.0078C3.44772 22.0078 3 21.5601 3 21.0078V19.0078C3 17.6817 3.52678 16.41 4.46447 15.4723Z" fill="#5E666F"/>
<path fill-rule="evenodd" clip-rule="evenodd" d="M12 4.00781C10.3431 4.00781 9 5.35096 9 7.00781C9 8.66467 10.3431 10.0078 12 10.0078C13.6569 10.0078 15 8.66467 15 7.00781C15 5.35096 13.6569 4.00781 12 4.00781ZM7 7.00781C7 4.24639 9.23858 2.00781 12 2.00781C14.7614 2.00781 17 4.24639 17 7.00781C17 9.76924 14.7614 12.0078 12 12.0078C9.23858 12.0078 7 9.76924 7 7.00781Z" fill="#5E666F"/>
</g>
</svg>
